<?xml version="1.0" encoding="iso-8859-1"?>
<!-- Generator: Adobe Illustrator 19.0.0, SVG Export Plug-In . SVG Version: 6.00 Build 0)  -->
<svg version="1.1" id="Capa_1" xmlns="http://www.w3.org/2000/svg" xmlns:xlink="http://www.w3.org/1999/xlink" x="0px" y="0px"
	 viewBox="0 0 512 512" style="enable-background:new 0 0 512 512;" xml:space="preserve">
<path style="fill:#193651;" d="M504,0H8C3.2,0,0,3.2,0,8c0,58.4,0,437.6,0,496c0,4.8,3.2,8,8,8h496c4.8,0,8-3.2,8-8
	c0-472.8,0-68.8,0-496C512,3.2,508.8,0,504,0z M496,343.2H16V308h480V343.2z M496,394.4H16v-35.2h480V394.4z M16,410.4h480v35.2H16
	V410.4z M16,16h480v276.8H16V16z M496,496H16v-35.2h480V496z"/>
<path style="fill:#44C4A1;" d="M432,40H80c0,22.4-17.6,40-40,40v148.8c22.4,0,40,17.6,40,40h352c0-22.4,17.6-40,40-40V80
	C449.6,80,432,62.4,432,40z"/>
<ellipse style="fill:#FFFFFF;" cx="256" cy="154.4" rx="63.2" ry="78.4"/>
<path style="fill:#44C4A1;" d="M256,146.4c-6.4,0-12-5.6-12-12c0-6.4,5.6-12,12-12s12,5.6,12,12h16c0-12.8-8.8-23.2-20-26.4v-8h-16
	v8c-11.2,3.2-20,14.4-20,26.4c0,15.2,12.8,28,28,28c6.4,0,12,5.6,12,12s-5.6,12-12,12s-12-5.6-12-12h-16c0,12.8,8.8,23.2,20,26.4v8
	h16v-8c11.2-3.2,20-14.4,20-26.4C284,159.2,271.2,146.4,256,146.4z"/>
<g>
	<circle style="fill:#FFFFFF;" cx="403.2" cy="154.4" r="19.2"/>
	<circle style="fill:#FFFFFF;" cx="108.8" cy="154.4" r="19.2"/>
</g>
<g>
</g>
<g>
</g>
<g>
</g>
<g>
</g>
<g>
</g>
<g>
</g>
<g>
</g>
<g>
</g>
<g>
</g>
<g>
</g>
<g>
</g>
<g>
</g>
<g>
</g>
<g>
</g>
<g>
</g>
</svg>
