<?xml version="1.0" encoding="iso-8859-1"?>
<!-- Generator: Adobe Illustrator 19.0.0, SVG Export Plug-In . SVG Version: 6.00 Build 0)  -->
<svg version="1.1" id="Capa_1" xmlns="http://www.w3.org/2000/svg" xmlns:xlink="http://www.w3.org/1999/xlink" x="0px" y="0px"
	 viewBox="0 0 512 512" style="enable-background:new 0 0 512 512;" xml:space="preserve">
<path style="fill:#FF6848;" d="M507.608,266.61L266.61,507.608c-2.93,2.93-6.77,4.39-10.61,4.39s-7.68-1.46-10.61-4.39L4.392,266.61
	c-4.29-4.29-5.57-10.74-3.25-16.35c2.32-5.61,7.79-9.26,13.86-9.26h95.999V15.002c0-8.28,6.72-15,15-15h259.998
	c8.28,0,15,6.72,15,15V241h95.999c6.07,0,11.54,3.65,13.86,9.26C513.178,255.87,511.898,262.32,507.608,266.61z"/>
<path style="fill:#F74B35;" d="M510.858,250.26c-2.32-5.61-7.79-9.26-13.86-9.26h-95.999V15.002c0-8.28-6.72-15-15-15H256v511.996
	c3.84,0,7.68-1.46,10.61-4.39L507.608,266.61C511.898,262.32,513.178,255.87,510.858,250.26z"/>
<path style="fill:#ECEDF8;" d="M328.958,228.746c-5.857-5.857-15.355-5.857-21.213,0L183.041,353.45
	c-5.858,5.857-5.858,15.355,0,21.213c5.859,5.858,15.355,5.858,21.213,0l124.704-124.704
	C334.816,244.101,334.816,234.603,328.958,228.746z"/>
<path style="fill:#D6D8F6;" d="M276.49,322.195c-15.596,15.596-15.596,40.972,0,56.567c15.628,15.63,40.934,15.635,56.568,0.001
	c0,0,0,0,0.001-0.001c15.629-15.63,15.634-40.935,0-56.567C317.427,306.562,292.124,306.56,276.49,322.195z M311.845,357.549
	C311.845,357.55,311.845,357.55,311.845,357.549c-3.909,3.909-10.232,3.909-14.143,0.001c-3.898-3.898-3.898-10.243,0-14.142
	c3.911-3.909,10.232-3.909,14.143,0.001C315.752,347.317,315.753,353.64,311.845,357.549z"/>
<path style="fill:#ECEDF8;" d="M235.51,281.215c15.595-15.595,15.596-40.972,0-56.568s-40.973-15.596-56.568,0l0,0
	c-15.631,15.633-15.634,40.934,0,56.568C194.535,296.809,219.914,296.811,235.51,281.215z M200.154,245.859
	c3.899-3.898,10.243-3.898,14.142,0c3.899,3.899,3.899,10.243,0,14.143c-3.899,3.898-10.243,3.898-14.143,0
	C196.247,256.094,196.246,249.77,200.154,245.859z"/>
<path style="fill:#F74B35;" d="M400.999,109.061v32.82l-71.409,31.74c-1.94,0.87-4.02,1.3-6.09,1.3c-2.08,0-4.15-0.43-6.09-1.3
	L256,146.331l-61.41,27.29c-3.88,1.73-8.31,1.73-12.19,0l-71.399-31.73v-32.84l77.499,34.45l61.4-27.29c3.88-1.73,8.31-1.73,12.19,0
	l61.41,27.29L400.999,109.061z"/>
<path style="fill:#F02F21;" d="M323.499,143.501l-61.41-27.29c-1.938-0.864-4.014-1.297-6.09-1.297v31.417l61.41,27.29
	c1.94,0.87,4.01,1.3,6.09,1.3c2.07,0,4.15-0.43,6.09-1.3l71.409-31.74v-32.82L323.499,143.501z"/>
<path style="fill:#D6D8F6;" d="M328.958,228.746c-5.857-5.857-15.355-5.857-21.213,0L256,280.492v42.426l72.958-72.958
	C334.816,244.101,334.816,234.603,328.958,228.746z"/>
<g>
</g>
<g>
</g>
<g>
</g>
<g>
</g>
<g>
</g>
<g>
</g>
<g>
</g>
<g>
</g>
<g>
</g>
<g>
</g>
<g>
</g>
<g>
</g>
<g>
</g>
<g>
</g>
<g>
</g>
</svg>
