<?xml version="1.0" encoding="utf-8"?>
<!-- Generator: Adobe Illustrator 16.0.0, SVG Export Plug-In . SVG Version: 6.00 Build 0)  -->
<!DOCTYPE svg PUBLIC "-//W3C//DTD SVG 1.1//EN" "http://www.w3.org/Graphics/SVG/1.1/DTD/svg11.dtd">
<svg version="1.1" id="Layer_1" xmlns="http://www.w3.org/2000/svg" xmlns:xlink="http://www.w3.org/1999/xlink" x="0px" y="0px"
	 width="14px" height="14px" viewBox="0 0 14 14" enable-background="new 0 0 14 14" xml:space="preserve">
<g>
	<path fill="#FFFFFF" d="M8.174,11.059v2.871c1.086-0.031,2.127-0.316,3.053-0.813l-1.352-2.529
		C9.359,10.865,8.779,11.029,8.174,11.059z"/>
	<path fill="#FFFFFF" d="M4.004,6.3c0.002-0.01,0.005-0.021,0.006-0.031L1.365,5.035C1.292,5.279,1.231,5.527,1.185,5.782
		c-0.688,3.749,1.792,7.347,5.542,8.036c0.212,0.037,0.423,0.066,0.634,0.086v-2.887c-0.039-0.006-0.077-0.012-0.116-0.02
		C5.053,10.596,3.602,8.492,4.004,6.3z"/>
	<path fill="#FFFFFF" d="M9.221,0.241C9.203,0.238,9.186,0.235,9.168,0.232L8.803,3.081c0.41,0.085,0.793,0.23,1.143,0.425
		l1.4-2.502C10.701,0.644,9.988,0.381,9.221,0.241z"/>
	<path fill="#FFFFFF" d="M4.97,0.815C3.51,1.522,2.313,2.734,1.645,4.271l2.601,1.211c0.365-0.88,1.025-1.585,1.838-2.017
		L4.97,0.815z"/>
	<path fill="#FFFFFF" d="M5.452,0.604l1.113,2.645C7.1,3.048,7.682,2.96,8.279,3.006L8.645,0.16C7.529,0.05,6.441,0.214,5.452,0.604
		z"/>
</g>
</svg>
